# Blender v2.79 (sub 0) OBJ File: ''
# www.blender.org
v 0.819226 -0.011329 -2.339678
v -0.825615 -0.011329 -2.339678
v -1.000000 -0.011329 -2.512657
v -1.000000 0.487580 -2.512656
v -0.825615 0.487580 -2.339678
v 0.819226 0.487580 -2.339678
v 1.000000 0.487580 -2.512655
v 1.000000 -0.011329 2.512656
v 1.000000 -0.011329 -2.512656
v 0.999999 0.487580 2.512657
v -1.000000 -0.011329 2.512655
v 0.819226 -0.011329 2.341462
v -0.825615 0.487580 2.341462
v -0.825615 -0.011329 2.341462
v 0.819226 0.487580 2.341462
v -1.000000 0.487580 2.512655
vt 0.009625 0.696796
vt 0.009625 0.970936
vt 0.000000 1.000000
vt 0.559229 0.000000
vt 0.568854 0.029064
vt 0.568853 0.303204
vt 0.000000 0.666667
vt 0.279614 0.333333
vt 0.279614 0.666667
vt 0.559229 0.000000
vt 0.279614 0.333333
vt 0.279614 0.000000
vt 0.000000 0.000000
vt 0.279614 0.000000
vt 0.559229 0.333333
vt 0.279614 0.666667
vt 0.279614 0.333333
vt 0.559229 0.666667
vt 0.819693 0.333333
vt 0.819693 0.666667
vt 0.540079 0.666667
vt 0.770039 1.000000
vt 0.540079 1.000000
vt 0.279614 1.000000
vt 0.279614 0.666667
vt 0.525323 0.666667
vt 0.829318 0.303204
vt 0.829318 0.029064
vt 0.838843 0.000000
vt 0.279614 1.000000
vt 0.024380 0.970936
vt 0.270089 0.970936
vt 0.770039 0.666667
vt 1.000000 1.000000
vt 0.770039 1.000000
vt 0.000000 0.666667
vt 0.279614 0.666667
vt 0.270089 0.696796
vt 0.559229 0.333333
vt 0.000000 0.333333
vt 0.559229 0.333333
vt 0.000000 0.333333
vt 0.559229 0.666667
vt 0.559229 0.333333
vt 0.770039 0.666667
vt 0.525323 1.000000
vt 0.838843 0.333333
vt 0.583609 0.029064
vt 1.000000 0.666667
vn 0.0000 -1.0000 -0.0000
vn 0.0000 1.0000 0.0000
vn 1.0000 0.0000 0.0000
vn -0.0000 -0.0000 1.0000
vn -1.0000 0.0000 0.0000
vn 0.0000 0.0000 -1.0000
vn 0.7071 0.0000 0.7071
s 1
f 1/1/1 2/2/1 3/3/1
f 4/4/2 5/5/2 6/6/2
f 7/7/3 8/8/3 9/9/3
f 10/10/4 11/11/4 8/12/4
f 11/11/5 4/13/5 3/14/5
f 9/15/6 4/16/6 7/17/6
f 12/18/5 6/19/5 1/20/5
f 6/21/4 2/22/7 1/23/4
f 13/24/3 14/25/3 2/26/7
f 15/27/2 13/28/2 16/29/2
f 11/30/1 2/31/1 14/32/1
f 13/33/6 12/34/6 14/35/6
f 9/36/1 8/37/1 1/1/1
f 8/37/1 12/38/1 1/1/1
f 9/36/1 1/1/1 3/3/1
f 6/6/2 7/39/2 4/4/2
f 7/7/3 10/40/3 8/8/3
f 10/10/4 16/41/4 11/11/4
f 11/11/5 16/42/5 4/13/5
f 9/15/6 3/43/6 4/16/6
f 12/18/5 15/44/5 6/19/5
f 6/21/4 5/45/7 2/22/7
f 5/46/7 13/24/3 2/26/7
f 7/39/2 6/6/2 10/47/2
f 6/6/2 15/27/2 10/47/2
f 13/28/2 5/48/2 16/29/2
f 5/48/2 4/4/2 16/29/2
f 10/47/2 15/27/2 16/29/2
f 11/30/1 3/3/1 2/31/1
f 14/32/1 12/38/1 11/30/1
f 12/38/1 8/37/1 11/30/1
f 13/33/6 15/49/6 12/34/6
