# Blender v2.79 (sub 0) OBJ File: 'cabinet.blend'
# www.blender.org
v -2.271468 -2.539501 -1.445522
v 2.325947 -2.539501 -1.445522
v -2.271468 2.400009 -1.445522
v 2.325947 2.400009 -1.445522
vt 1.000000 0.000000
vt 0.000000 1.000000
vt 0.000000 0.000000
vt 1.000000 1.000000
vn 0.0000 -0.0000 1.0000
s off
f 2/1/1 3/2/1 1/3/1
f 2/1/1 4/4/1 3/2/1
v 2.288730 -2.406213 -4.215607
v 2.288730 -2.406213 4.215607
v -2.288731 -2.406213 4.215606
v -2.288730 -2.406213 -4.215609
v 2.288732 2.406213 -4.215604
v 2.288729 2.406213 4.215609
v -2.288731 2.406213 4.215605
v -2.288730 2.406213 -4.215607
v 2.422429 -2.546774 -4.461866
v 2.422429 -2.546774 4.461866
v -2.422430 -2.546774 4.461865
v -2.422428 -2.546774 -4.461868
v 2.422431 2.546774 -4.461864
v 2.422428 2.546774 4.461869
v -2.422430 2.546774 4.461865
v -2.422429 2.546774 -4.461866
v 2.422429 2.009602 1.495038
v 2.288730 2.009602 1.495038
v 2.422428 2.009602 3.723549
v 2.288729 2.009602 3.723550
v 2.422429 -1.007828 3.723549
v 2.288730 -1.007828 3.723549
v 2.422430 -1.007828 1.495038
v 2.288731 -1.007828 1.495038
v 2.422430 -0.472797 1.495038
v 2.288731 -0.853347 1.495038
v 2.422430 2.009602 -1.087574
v 2.288731 2.009602 -1.087574
v 2.422429 2.009602 1.140938
v 2.288730 2.009602 1.140938
v 2.422430 -1.007828 1.140938
v 2.422430 -0.596082 1.140938
v 2.288731 -1.007828 1.140938
v 2.288731 -0.949636 1.140938
v 2.422429 -1.007828 -0.041683
v 2.288731 -1.007828 0.926938
v 2.422430 -1.007828 -1.087574
v 2.288731 -1.007828 -1.087574
v 2.422431 1.822524 -3.964692
v 2.288732 1.822524 -3.964692
v 2.422430 1.822524 -1.656363
v 2.288731 1.822524 -1.656363
v 2.422429 -1.570000 -1.656363
v 2.422429 -1.795930 -1.656363
v 2.288731 -1.795930 -1.656363
v 2.288731 -1.710291 -1.656363
v 2.422429 -1.795930 -2.305280
v 2.288731 -1.795930 -1.971297
v 2.422430 -1.795930 -3.964692
v 2.288731 -1.795930 -3.964692
vt 0.742905 0.514190
vt 0.985810 0.757095
vt 0.742905 0.757095
vt 0.500000 0.757095
vt 0.257095 1.000000
vt 0.257095 0.757095
vt 0.604309 0.479981
vt 0.514190 0.500000
vt 0.587922 0.470539
vt 0.742905 0.514190
vt 0.500000 0.514190
vt 0.757095 0.257095
vt 1.000000 0.500000
vt 0.757095 0.500000
vt 0.500000 0.757095
vt 0.257095 0.514190
vt 0.500000 0.514190
vt 0.514190 0.257095
vt 0.257095 0.514190
vt 0.257095 0.257095
vt 0.514190 0.000000
vt 0.771284 0.257095
vt 0.514190 0.257095
vt 0.036556 0.433362
vt 0.000000 0.514190
vt 0.027114 0.416976
vt 0.514190 0.000000
vt 0.257095 0.257095
vt 0.257095 0.000000
vt 0.000000 0.000000
vt 0.257095 0.000000
vt 0.000000 0.514190
vt 0.257095 0.771284
vt 0.000000 0.771284
vt 0.806758 0.007797
vt 0.813853 0.027005
vt 0.806758 0.152303
vt 0.757095 0.257095
vt 0.678715 0.327678
vt 0.668513 0.327678
vt 0.806758 0.246844
vt 0.813853 0.182640
vt 0.813853 0.246844
vt 0.219196 0.433362
vt 0.179417 0.386843
vt 0.179417 0.352772
vt 0.792569 0.152303
vt 0.799664 0.000000
vt 0.799664 0.152303
vt 0.792569 0.182640
vt 0.799664 0.246844
vt 0.792569 0.246844
vt 0.785474 0.152303
vt 0.792569 0.000000
vt 0.792569 0.152303
vt 0.785474 0.212772
vt 0.792569 0.182640
vt 0.792569 0.240678
vt 0.806758 0.152303
vt 0.799664 0.152303
vt 0.799664 0.020783
vt 0.806758 0.246844
vt 0.799664 0.182640
vt 0.806758 0.182640
vt 0.771284 0.182640
vt 0.778379 0.000000
vt 0.778379 0.182640
vt 0.778379 0.201335
vt 0.771284 0.249143
vt 0.771284 0.191713
vt 0.785474 0.182640
vt 0.778379 0.182640
vt 0.778379 0.011404
vt 0.778379 0.249143
vt 0.785474 0.182640
vt 0.785474 0.249143
vt 0.985810 0.514190
vt 0.500000 1.000000
vt 0.514190 0.257095
vt 0.578849 0.287899
vt 0.521419 0.287899
vt 0.521418 0.470539
vt 0.742918 0.479981
vt 0.757095 0.500000
vt 0.678715 0.479981
vt 0.668513 0.479981
vt 0.668513 0.330615
vt 0.678715 0.335475
vt 0.587922 0.292221
vt 0.662347 0.327678
vt 0.604309 0.327678
vt 0.742905 0.757095
vt 1.000000 0.257095
vt 0.257095 0.757095
vt 0.514190 0.514190
vt 0.771284 0.000000
vt 0.000000 0.257095
vt 0.257095 0.257095
vt 0.179417 0.278366
vt 0.027114 0.278366
vt 0.219196 0.499866
vt 0.219196 0.452058
vt 0.257095 0.514190
vt 0.036556 0.499866
vt 0.027114 0.342570
vt 0.152412 0.342570
vt 0.027114 0.352772
vt 0.158634 0.352772
vt 0.179417 0.416975
vt 0.207793 0.433362
vt 0.514190 0.257095
vt 0.000000 0.257095
vt 0.806758 0.000000
vt 0.813853 0.000000
vt 0.813853 0.152303
vt 0.742919 0.327678
vt 0.587922 0.287899
vt 0.806758 0.182640
vt 0.179417 0.342570
vt 0.792569 0.000000
vt 0.799664 0.182640
vt 0.785474 0.000000
vt 0.792569 0.246844
vt 0.785474 0.246844
vt 0.785474 0.182640
vt 0.799664 0.000000
vt 0.806758 0.002937
vt 0.806758 0.000000
vt 0.799664 0.246844
vt 0.771284 0.000000
vt 0.771284 0.182640
vt 0.778379 0.182640
vt 0.778379 0.249143
vt 0.778379 0.000000
vt 0.785474 0.004323
vt 0.785474 0.000000
vt 0.778379 0.182640
vn 0.0000 1.0000 0.0000
vn 0.0000 -1.0000 0.0000
vn -1.0000 -0.0000 -0.0000
vn 0.0000 0.0000 -1.0000
vn 1.0000 0.0000 0.0000
vn -0.0000 -0.0000 1.0000
s off
f 8/5/2 6/6/2 5/7/2
f 10/8/3 12/9/3 9/10/3
f 32/11/4 9/12/4 46/13/4
f 7/14/5 10/8/5 6/15/5
f 8/16/6 11/17/6 7/18/6
f 12/19/7 5/20/7 9/21/7
f 14/22/3 16/23/3 13/24/3
f 20/25/2 18/26/2 17/27/2
f 45/28/6 17/29/6 31/30/6
f 18/31/7 15/32/7 14/33/7
f 15/32/4 20/34/4 16/35/4
f 13/36/5 20/37/5 17/38/5
f 30/39/7 29/40/7 22/41/7
f 6/42/4 28/43/4 37/44/4
f 25/45/2 28/46/2 26/47/2
f 48/48/6 39/49/6 35/50/6
f 26/51/5 23/52/5 25/53/5
f 23/54/3 22/55/3 21/56/3
f 41/57/7 32/58/7 42/59/7
f 39/60/2 42/61/2 40/62/2
f 34/63/5 33/64/5 36/65/5
f 33/66/3 32/67/3 31/68/3
f 53/69/7 44/70/7 54/71/7
f 51/72/2 54/73/2 52/74/2
f 46/75/5 45/76/5 47/77/5
f 46/78/3 43/79/3 45/80/3
f 8/5/2 7/81/2 6/6/2
f 10/8/3 11/82/3 12/9/3
f 5/83/4 52/84/4 54/85/4
f 5/83/4 54/85/4 9/12/4
f 54/85/4 44/86/4 9/12/4
f 24/87/4 10/88/4 22/89/4
f 10/88/4 9/12/4 32/11/4
f 22/89/4 10/88/4 34/90/4
f 38/91/4 30/92/4 34/90/4
f 30/92/4 22/89/4 34/90/4
f 34/90/4 10/88/4 32/11/4
f 9/12/4 44/86/4 46/13/4
f 50/93/4 40/94/4 42/95/4
f 50/93/4 42/95/4 46/13/4
f 42/95/4 32/11/4 46/13/4
f 7/14/5 11/96/5 10/8/5
f 8/16/6 12/97/6 11/17/6
f 12/19/7 8/98/7 5/20/7
f 14/22/3 15/99/3 16/23/3
f 20/25/2 19/100/2 18/26/2
f 18/101/6 14/102/6 25/103/6
f 18/101/6 25/103/6 23/104/6
f 53/105/6 51/106/6 13/107/6
f 43/108/6 53/105/6 17/29/6
f 53/105/6 13/107/6 17/29/6
f 17/29/6 18/101/6 31/30/6
f 18/101/6 23/104/6 21/109/6
f 21/109/6 29/110/6 33/111/6
f 29/110/6 36/112/6 33/111/6
f 18/101/6 21/109/6 33/111/6
f 45/28/6 43/108/6 17/29/6
f 33/111/6 31/30/6 18/101/6
f 41/113/6 39/49/6 47/114/6
f 31/30/6 41/113/6 45/28/6
f 41/113/6 47/114/6 45/28/6
f 18/31/7 19/115/7 15/32/7
f 15/32/4 19/116/4 20/34/4
f 13/36/5 16/23/5 20/37/5
f 30/39/7 28/117/7 27/118/7
f 27/118/7 29/40/7 30/39/7
f 29/40/7 21/119/7 22/41/7
f 6/42/4 10/88/4 26/120/4
f 10/88/4 24/87/4 26/120/4
f 52/84/4 5/83/4 49/121/4
f 5/83/4 6/42/4 49/121/4
f 40/94/4 50/93/4 49/121/4
f 6/42/4 26/120/4 28/43/4
f 28/43/4 30/92/4 38/91/4
f 37/44/4 40/94/4 6/42/4
f 40/94/4 49/121/4 6/42/4
f 28/43/4 38/91/4 37/44/4
f 25/45/2 27/122/2 28/46/2
f 36/112/6 29/110/6 27/123/6
f 27/123/6 25/103/6 14/102/6
f 14/102/6 13/107/6 48/48/6
f 13/107/6 51/106/6 48/48/6
f 48/48/6 47/114/6 39/49/6
f 35/50/6 36/112/6 27/123/6
f 27/123/6 14/102/6 35/50/6
f 14/102/6 48/48/6 35/50/6
f 26/51/5 24/124/5 23/52/5
f 23/54/3 24/125/3 22/55/3
f 41/57/7 31/126/7 32/58/7
f 40/62/2 37/127/2 35/128/2
f 39/60/2 41/129/2 42/61/2
f 40/62/2 35/128/2 39/60/2
f 36/65/5 35/130/5 38/131/5
f 35/130/5 37/132/5 38/131/5
f 38/131/5 34/63/5 36/65/5
f 33/66/3 34/133/3 32/67/3
f 53/69/7 43/134/7 44/70/7
f 52/74/2 49/135/2 48/136/2
f 51/72/2 53/137/2 54/73/2
f 52/74/2 48/136/2 51/72/2
f 47/77/5 48/138/5 50/139/5
f 48/138/5 49/140/5 50/139/5
f 50/139/5 46/75/5 47/77/5
f 46/78/3 44/141/3 43/79/3
v 2.489663 2.337350 -4.297894
v 2.489663 2.337350 4.297894
v -2.489663 2.337350 4.297894
v -2.489662 2.337350 -4.297896
v 2.489664 2.545764 -4.297892
v 2.489661 2.545764 4.297897
v -2.489664 2.545764 4.297893
v -2.489663 2.545764 -4.297894
v 2.635100 2.331263 -4.548960
v 2.635100 2.331263 4.548961
v -2.635100 2.331263 4.548960
v -2.635099 2.331263 -4.548962
v 2.635101 2.551852 -4.548958
v 2.635098 2.551852 4.548964
v -2.635101 2.551852 4.548959
v -2.635099 2.551852 -4.548961
vt 0.257095 0.757095
vt 0.500000 1.000000
vt 0.257095 1.000000
vt 1.000000 0.257095
vt 0.757095 0.500000
vt 0.757095 0.257095
vt 0.757095 0.257095
vt 0.514190 0.500000
vt 0.514190 0.257095
vt 0.757095 0.742905
vt 0.514190 0.985810
vt 0.514190 0.742905
vt 0.257095 0.514190
vt 0.500000 0.757095
vt 0.257095 0.757095
vt 0.757095 0.742905
vt 0.514190 0.500000
vt 0.757095 0.500000
vt 0.514190 0.000000
vt 0.257095 0.257095
vt 0.257095 0.000000
vt 0.257095 0.514190
vt 0.000000 0.257095
vt 0.257095 0.257095
vt 0.000000 0.771284
vt 0.257095 0.514190
vt 0.257095 0.771284
vt 0.514190 0.000000
vt 0.771284 0.257095
vt 0.514190 0.257095
vt 0.257095 0.257095
vt 0.000000 0.000000
vt 0.257095 0.000000
vt 0.514190 0.257095
vt 0.500000 0.757095
vt 1.000000 0.500000
vt 0.757095 0.500000
vt 0.757095 0.985810
vt 0.500000 0.514190
vt 0.514190 0.742905
vt 0.514190 0.257095
vt 0.000000 0.514190
vt 0.000000 0.514190
vt 0.771284 0.000000
vt 0.000000 0.257095
vt 0.514190 0.514190
vn 0.0000 1.0000 0.0000
vn 0.0000 -1.0000 0.0000
vn -1.0000 0.0000 0.0000
vn 0.0000 0.0000 -1.0000
vn 1.0000 0.0000 0.0000
vn -0.0000 -0.0000 1.0000
s off
f 58/142/8 56/143/8 55/144/8
f 60/145/9 62/146/9 59/147/9
f 56/148/10 59/149/10 55/150/10
f 57/151/11 60/152/11 56/153/11
f 58/154/12 61/155/12 57/156/12
f 62/157/13 55/158/13 59/159/13
f 64/160/9 66/161/9 63/162/9
f 70/163/8 68/164/8 67/165/8
f 67/166/12 64/167/12 63/168/12
f 68/169/13 65/170/13 64/171/13
f 65/172/10 70/173/10 66/174/10
f 63/175/11 70/163/11 67/165/11
f 58/142/8 57/176/8 56/143/8
f 60/145/9 61/177/9 62/146/9
f 56/148/10 60/178/10 59/149/10
f 57/151/11 61/179/11 60/152/11
f 58/154/12 62/180/12 61/155/12
f 62/157/13 58/181/13 55/158/13
f 64/160/9 65/182/9 66/161/9
f 70/163/8 69/183/8 68/164/8
f 67/166/12 68/184/12 64/167/12
f 68/169/13 69/185/13 65/170/13
f 65/172/10 69/186/10 70/173/10
f 63/175/11 66/187/11 70/163/11
v 2.489663 -2.555353 -4.297894
v 2.489663 -2.555353 4.297894
v -2.489663 -2.555353 4.297894
v -2.489662 -2.555353 -4.297896
v 2.489664 -2.346939 -4.297892
v 2.489661 -2.346939 4.297897
v -2.489664 -2.346939 4.297893
v -2.489663 -2.346939 -4.297894
v 2.635100 -2.561440 -4.548960
v 2.635100 -2.561440 4.548961
v -2.635100 -2.561440 4.548960
v -2.635099 -2.561440 -4.548962
v 2.635101 -2.340851 -4.548958
v 2.635098 -2.340851 4.548964
v -2.635101 -2.340851 4.548959
v -2.635099 -2.340851 -4.548961
vt 0.257095 0.757095
vt 0.500000 1.000000
vt 0.257095 1.000000
vt 1.000000 0.257095
vt 0.757095 0.500000
vt 0.757095 0.257095
vt 0.757095 0.257095
vt 0.514190 0.500000
vt 0.514190 0.257095
vt 0.757095 0.742905
vt 0.514190 0.985810
vt 0.514190 0.742905
vt 0.257095 0.514190
vt 0.500000 0.757095
vt 0.257095 0.757095
vt 0.757095 0.742905
vt 0.514190 0.500000
vt 0.757095 0.500000
vt 0.514190 0.000000
vt 0.257095 0.257095
vt 0.257095 0.000000
vt 0.257095 0.514190
vt 0.000000 0.257095
vt 0.257095 0.257095
vt 0.000000 0.771284
vt 0.257095 0.514190
vt 0.257095 0.771284
vt 0.514190 0.000000
vt 0.771284 0.257095
vt 0.514190 0.257095
vt 0.257095 0.257095
vt 0.000000 0.000000
vt 0.257095 0.000000
vt 0.514190 0.257095
vt 0.500000 0.757095
vt 1.000000 0.500000
vt 0.757095 0.500000
vt 0.757095 0.985810
vt 0.500000 0.514190
vt 0.514190 0.742905
vt 0.514190 0.257095
vt 0.000000 0.514190
vt 0.000000 0.514190
vt 0.771284 0.000000
vt 0.000000 0.257095
vt 0.514190 0.514190
vn 0.0000 1.0000 0.0000
vn 0.0000 -1.0000 0.0000
vn -1.0000 0.0000 0.0000
vn 0.0000 0.0000 -1.0000
vn 1.0000 0.0000 0.0000
vn -0.0000 -0.0000 1.0000
s off
f 74/188/14 72/189/14 71/190/14
f 76/191/15 78/192/15 75/193/15
f 72/194/16 75/195/16 71/196/16
f 73/197/17 76/198/17 72/199/17
f 74/200/18 77/201/18 73/202/18
f 78/203/19 71/204/19 75/205/19
f 80/206/15 82/207/15 79/208/15
f 86/209/14 84/210/14 83/211/14
f 83/212/18 80/213/18 79/214/18
f 84/215/19 81/216/19 80/217/19
f 81/218/16 86/219/16 82/220/16
f 79/221/17 86/209/17 83/211/17
f 74/188/14 73/222/14 72/189/14
f 76/191/15 77/223/15 78/192/15
f 72/194/16 76/224/16 75/195/16
f 73/197/17 77/225/17 76/198/17
f 74/200/18 78/226/18 77/201/18
f 78/203/19 74/227/19 71/204/19
f 80/206/15 81/228/15 82/207/15
f 86/209/14 85/229/14 84/210/14
f 83/212/18 84/230/18 80/213/18
f 84/215/19 85/231/19 81/216/19
f 81/218/16 85/232/16 86/219/16
f 79/221/17 82/233/17 86/209/17
v -2.271468 -1.118849 4.375577
v 2.325947 -1.118849 4.375577
v -2.271468 -1.118849 -1.397651
v 2.325947 -1.118849 -1.397651
vt 1.000000 0.000000
vt 0.000000 1.000000
vt 0.000000 0.000000
vt 1.000000 1.000000
vn 0.0000 1.0000 0.0000
s off
f 88/234/20 89/235/20 87/236/20
f 88/234/20 90/237/20 89/235/20
