# Blender v2.79 (sub 0) OBJ File: 'noodle.blend'
# www.blender.org
v -2.447612 -1.103643 -0.208704
v 1.828390 -1.107265 -0.207859
v 1.828368 -1.115296 -0.208704
v -2.447590 -1.095613 -0.207859
v 1.828411 -1.099543 -0.205355
v -2.447569 -1.087891 -0.205355
v 1.828430 -1.092427 -0.201288
v -2.447550 -1.080774 -0.201288
v 1.828447 -1.086189 -0.195816
v -2.447532 -1.074536 -0.195816
v 1.828461 -1.081070 -0.189148
v -2.447519 -1.069417 -0.189148
v 1.828471 -1.077266 -0.181540
v -2.447508 -1.065613 -0.181540
v 1.828478 -1.074923 -0.173285
v -2.447502 -1.063270 -0.173285
v 1.828480 -1.074132 -0.164700
v -2.447500 -1.062479 -0.164700
v 1.828478 -1.074923 -0.156115
v -2.447502 -1.063270 -0.156115
v 1.828471 -1.077266 -0.147860
v -2.447508 -1.065613 -0.147860
v 1.828461 -1.081070 -0.140253
v -2.447519 -1.069417 -0.140253
v 1.828447 -1.086189 -0.133584
v -2.447532 -1.074536 -0.133584
v 1.828430 -1.092427 -0.128112
v -2.447550 -1.080774 -0.128112
v 1.828411 -1.099543 -0.124045
v -2.447569 -1.087891 -0.124045
v 1.828390 -1.107265 -0.121541
v -2.447590 -1.095613 -0.121541
v 1.828368 -1.115296 -0.120696
v -2.447612 -1.103643 -0.120696
v 1.828346 -1.123327 -0.121541
v -2.447634 -1.111674 -0.121541
v 1.828325 -1.131049 -0.124045
v -2.447655 -1.119396 -0.124045
v 1.828305 -1.138165 -0.128112
v -2.447674 -1.126513 -0.128112
v 1.828288 -1.144403 -0.133584
v -2.447691 -1.132750 -0.133584
v 1.828274 -1.149523 -0.140253
v -2.447705 -1.137870 -0.140253
v 1.828264 -1.153326 -0.147860
v -2.447716 -1.141674 -0.147860
v 1.828258 -1.155669 -0.156115
v -2.447722 -1.144016 -0.156115
v 1.828255 -1.156460 -0.164700
v -2.447724 -1.144807 -0.164700
v 1.828258 -1.155669 -0.173285
v -2.447722 -1.144016 -0.173285
v 1.828264 -1.153326 -0.181540
v -2.447716 -1.141673 -0.181540
v 1.828274 -1.149522 -0.189148
v -2.447705 -1.137869 -0.189148
v 1.828288 -1.144403 -0.195816
v -2.447691 -1.132750 -0.195816
v 1.828305 -1.138165 -0.201288
v -2.447674 -1.126513 -0.201288
v 1.828325 -1.131049 -0.205355
v -2.447655 -1.119396 -0.205355
v 1.828346 -1.123327 -0.207859
v -2.447634 -1.111674 -0.207859
vt 0.515574 1.000000
vt 0.490537 0.000000
vt 0.515578 0.000000
vt 0.490536 1.000000
vt 0.465917 0.000000
vt 0.465916 1.000000
vt 0.442663 0.000000
vt 0.442658 1.000000
vt 0.421665 0.000000
vt 0.421660 0.999999
vt 0.402554 0.000000
vt 0.402554 1.000000
vt 0.380166 0.000000
vt 0.380167 1.000000
vt 0.355359 0.000000
vt 0.355359 1.000000
vt 0.329083 0.000000
vt 0.329083 1.000000
vt 0.302349 0.000000
vt 0.302349 1.000000
vt 0.276185 0.000000
vt 0.276185 1.000000
vt 0.251599 0.000000
vt 0.251599 1.000000
vt 0.229529 0.000000
vt 0.229529 1.000000
vt 0.210830 0.000000
vt 0.210830 1.000000
vt 0.583726 0.000000
vt 0.604365 1.000000
vt 0.583726 1.000000
vt 0.604368 0.000000
vt 0.627376 1.000000
vt 0.627380 0.000000
vt 0.651874 1.000000
vt 0.651873 0.000000
vt 0.676914 1.000000
vt 0.676914 0.000000
vt 0.701535 1.000000
vt 0.701535 0.000000
vt 0.724789 1.000000
vt 0.724792 0.000000
vt 0.745788 1.000000
vt 0.745788 0.000000
vt 0.000000 0.000000
vt 0.019109 1.000000
vt 0.000001 1.000000
vt 0.019108 0.000000
vt 0.041494 1.000000
vt 0.041493 0.000000
vt 0.066302 1.000000
vt 0.066300 0.000000
vt 0.092577 1.000000
vt 0.092576 0.000000
vt 0.119311 1.000000
vt 0.119310 0.000000
vt 0.145475 1.000000
vt 0.145473 0.000000
vt 0.170064 1.000000
vt 0.170063 0.000000
vt 0.192131 1.000000
vt 0.192130 0.000000
vt 0.210830 1.000000
vt 0.210829 0.000000
vt 0.583724 1.000000
vt 0.563087 0.000000
vt 0.583726 0.000000
vt 0.563082 1.000000
vt 0.985532 0.005510
vt 0.933102 0.019377
vt 0.760257 0.014985
vt 0.812689 0.001118
vt 0.835821 0.000369
vt 0.860376 0.000000
vt 0.885414 0.000024
vt 0.909971 0.000442
vt 0.933104 0.001236
vt 0.953919 0.002377
vt 0.971622 0.003820
vt 0.995115 0.007382
vt 1.000000 0.009364
vt 1.000000 0.011381
vt 0.995117 0.013353
vt 0.985535 0.015206
vt 0.971623 0.016869
vt 0.953921 0.018277
vt 0.909970 0.020126
vt 0.885413 0.020495
vt 0.860377 0.020471
vt 0.835821 0.020053
vt 0.812688 0.019259
vt 0.791870 0.018118
vt 0.774167 0.016675
vt 0.750673 0.013113
vt 0.745789 0.011131
vt 0.745788 0.009115
vt 0.750676 0.007142
vt 0.760256 0.005288
vt 0.774166 0.003626
vt 0.791871 0.002218
vt 0.540075 0.000000
vt 0.540071 1.000000
vt 0.995114 0.027877
vt 0.909972 0.040621
vt 0.750674 0.033608
vt 0.835816 0.020864
vt 0.860374 0.020495
vt 0.885412 0.020519
vt 0.909969 0.020937
vt 0.933098 0.021731
vt 0.953917 0.022872
vt 0.971620 0.024315
vt 0.985531 0.026005
vt 1.000000 0.029859
vt 1.000000 0.031876
vt 0.995114 0.033848
vt 0.985532 0.035701
vt 0.971623 0.037364
vt 0.953919 0.038772
vt 0.933103 0.039872
vt 0.885414 0.040990
vt 0.860376 0.040966
vt 0.835819 0.040548
vt 0.812689 0.039754
vt 0.791871 0.038613
vt 0.774164 0.037170
vt 0.760257 0.035480
vt 0.745788 0.031626
vt 0.745788 0.029610
vt 0.750674 0.027637
vt 0.760255 0.025784
vt 0.774164 0.024121
vt 0.791869 0.022713
vt 0.812685 0.021613
vn 0.0003 0.1047 -0.9945
vn 0.0003 0.1046 -0.9945
vn 0.0008 0.3085 -0.9512
vn 0.0014 0.4962 -0.8682
vn 0.0018 0.6594 -0.7518
vn 0.0018 0.6594 -0.7517
vn 0.0022 0.7932 -0.6089
vn 0.0022 0.7932 -0.6090
vn 0.0024 0.8944 -0.4472
vn 0.0026 0.9620 -0.2730
vn 0.0027 0.9958 -0.0918
vn 0.0027 0.9958 -0.0917
vn 0.0027 0.9958 0.0918
vn 0.0026 0.9620 0.2731
vn 0.0026 0.9620 0.2730
vn 0.0024 0.8944 0.4473
vn 0.0024 0.8944 0.4472
vn 0.0022 0.7933 0.6089
vn 0.0022 0.7932 0.6089
vn 0.0018 0.6594 0.7518
vn 0.0014 0.4961 0.8682
vn 0.0014 0.4962 0.8682
vn 0.0008 0.3085 0.9512
vn 0.0003 0.1047 0.9945
vn 0.0003 0.1046 0.9945
vn -0.0003 -0.1046 0.9945
vn -0.0008 -0.3085 0.9512
vn -0.0014 -0.4961 0.8682
vn -0.0014 -0.4962 0.8682
vn -0.0018 -0.6595 0.7517
vn -0.0018 -0.6594 0.7517
vn -0.0022 -0.7932 0.6090
vn -0.0022 -0.7932 0.6089
vn -0.0024 -0.8944 0.4473
vn -0.0024 -0.8945 0.4472
vn -0.0026 -0.9620 0.2729
vn -0.0026 -0.9620 0.2730
vn -0.0027 -0.9958 0.0917
vn -0.0027 -0.9958 0.0918
vn -0.0027 -0.9958 -0.0917
vn -0.0027 -0.9958 -0.0918
vn -0.0026 -0.9620 -0.2730
vn -0.0026 -0.9620 -0.2731
vn -0.0024 -0.8944 -0.4472
vn -0.0022 -0.7932 -0.6089
vn -0.0022 -0.7932 -0.6090
vn -0.0018 -0.6595 -0.7517
vn -0.0018 -0.6594 -0.7517
vn -0.0014 -0.4961 -0.8682
vn -0.0014 -0.4962 -0.8682
vn -1.0000 0.0027 -0.0000
vn -1.0000 0.0026 0.0001
vn -1.0000 0.0028 0.0000
vn -1.0000 0.0027 -0.0001
vn -1.0000 0.0027 -0.0002
vn -1.0000 0.0025 -0.0000
vn -1.0000 0.0024 0.0000
vn -1.0000 0.0026 0.0000
vn -1.0000 0.0028 -0.0001
vn -1.0000 0.0028 0.0001
vn -1.0000 0.0025 -0.0001
vn -1.0000 0.0030 0.0000
vn -1.0000 0.0029 0.0001
vn -1.0000 0.0027 0.0001
vn -0.0008 -0.3085 -0.9512
vn -0.0003 -0.1046 -0.9945
vn 1.0000 -0.0027 -0.0000
vn 1.0000 -0.0028 0.0000
vn 1.0000 -0.0027 -0.0001
vn 1.0000 -0.0028 0.0001
vn 1.0000 -0.0027 0.0001
vn 1.0000 -0.0029 0.0001
vn 1.0000 -0.0030 0.0001
vn 1.0000 -0.0025 0.0000
vn 1.0000 -0.0026 0.0000
vn 1.0000 -0.0027 -0.0004
vn 1.0000 -0.0030 0.0000
vn 1.0000 -0.0036 0.0000
vn 1.0000 -0.0029 -0.0001
vn 1.0000 -0.0028 -0.0001
vn 1.0000 -0.0026 0.0004
s 1
f 1/1/1 2/2/2 3/3/2
f 1/1/1 4/4/1 2/2/2
s 2
f 4/4/3 5/5/3 2/2/3
f 4/4/3 6/6/3 5/5/3
s 3
f 6/6/4 7/7/4 5/5/4
f 6/6/4 8/8/4 7/7/4
s 4
f 8/8/5 9/9/6 7/7/6
f 8/8/5 10/10/5 9/9/6
s 5
f 10/10/7 11/11/8 9/9/8
f 10/10/7 12/12/7 11/11/8
s 6
f 12/12/9 13/13/9 11/11/9
f 12/12/9 14/14/9 13/13/9
s 7
f 14/14/10 15/15/10 13/13/10
f 14/14/10 16/16/10 15/15/10
s 8
f 16/16/11 17/17/12 15/15/12
f 16/16/11 18/18/11 17/17/12
s 9
f 18/18/13 19/19/13 17/17/13
f 18/18/13 20/20/13 19/19/13
s 10
f 20/20/14 21/21/15 19/19/15
f 20/20/14 22/22/14 21/21/15
s 11
f 22/22/16 23/23/17 21/21/17
f 22/22/16 24/24/16 23/23/17
s 12
f 24/24/18 25/25/19 23/23/19
f 24/24/18 26/26/18 25/25/19
s 13
f 26/26/20 27/27/20 25/25/20
f 26/26/20 28/28/20 27/27/20
s 14
f 28/29/21 29/30/22 27/31/22
f 28/29/21 30/32/21 29/30/22
s 15
f 30/32/23 31/33/23 29/30/23
f 30/32/23 32/34/23 31/33/23
s 16
f 32/34/24 33/35/25 31/33/25
f 32/34/24 34/36/24 33/35/25
s 17
f 34/36/26 35/37/26 33/35/26
f 34/36/26 36/38/26 35/37/26
s 18
f 36/38/27 37/39/27 35/37/27
f 36/38/27 38/40/27 37/39/27
s 19
f 38/40/28 39/41/29 37/39/29
f 38/40/28 40/42/28 39/41/29
s 20
f 40/42/30 41/43/31 39/41/31
f 40/42/30 42/44/30 41/43/31
s 21
f 42/45/32 43/46/33 41/47/33
f 42/45/32 44/48/32 43/46/33
s 22
f 44/48/34 45/49/35 43/46/35
f 44/48/34 46/50/34 45/49/35
s 23
f 46/50/36 47/51/37 45/49/37
f 46/50/36 48/52/36 47/51/37
s 24
f 48/52/38 49/53/39 47/51/39
f 48/52/38 50/54/38 49/53/39
s 25
f 50/54/40 51/55/41 49/53/41
f 50/54/40 52/56/40 51/55/41
s 26
f 52/56/42 53/57/43 51/55/43
f 52/56/42 54/58/42 53/57/43
s 27
f 54/58/44 55/59/44 53/57/44
f 54/58/44 56/60/44 55/59/44
s 28
f 56/60/45 57/61/46 55/59/46
f 56/60/45 58/62/45 57/61/46
s 29
f 58/62/47 59/63/48 57/61/48
f 58/62/47 60/64/47 59/63/48
s 30
f 60/65/49 61/66/50 59/67/50
f 60/65/49 62/68/49 61/66/50
s 31
f 54/69/51 38/70/51 22/71/51
f 6/72/51 4/73/52 1/74/53
f 1/74/53 64/75/51 6/72/51
f 64/75/51 62/76/51 6/72/51
f 62/76/51 60/77/54 58/78/54
f 58/78/54 56/79/55 54/69/51
f 54/69/51 52/80/56 50/81/57
f 50/81/57 48/82/58 54/69/51
f 48/82/58 46/83/51 54/69/51
f 46/83/51 44/84/52 38/70/51
f 44/84/52 42/85/52 38/70/51
f 42/85/52 40/86/52 38/70/51
f 38/70/51 36/87/59 34/88/51
f 34/88/51 32/89/54 30/90/51
f 30/90/51 28/91/55 26/92/60
f 26/92/60 24/93/61 22/71/51
f 22/71/51 20/94/54 18/95/57
f 18/95/57 16/96/62 22/71/51
f 16/96/62 14/97/58 22/71/51
f 14/97/58 12/98/63 10/99/51
f 10/99/51 8/100/64 6/72/51
f 62/76/51 58/78/54 6/72/51
f 58/78/54 54/69/51 6/72/51
f 38/70/51 34/88/51 22/71/51
f 34/88/51 30/90/51 22/71/51
f 30/90/51 26/92/60 22/71/51
f 14/97/58 10/99/51 22/71/51
f 10/99/51 6/72/51 22/71/51
f 54/69/51 46/83/51 38/70/51
f 6/72/51 54/69/51 22/71/51
s 32
f 62/68/65 63/101/65 61/66/65
f 62/68/65 64/102/65 63/101/65
s 33
f 64/102/66 3/3/66 63/101/66
f 64/102/66 1/1/66 3/3/66
s 34
f 15/103/67 31/104/67 47/105/68
f 63/106/67 3/107/69 2/108/70
f 2/108/70 5/109/71 7/110/67
f 7/110/67 9/111/72 11/112/70
f 11/112/70 13/113/73 7/110/67
f 13/113/73 15/103/67 7/110/67
f 15/103/67 17/114/74 19/115/75
f 19/115/75 21/116/75 15/103/67
f 21/116/75 23/117/67 15/103/67
f 23/117/67 25/118/71 31/104/67
f 25/118/71 27/119/67 31/104/67
f 27/119/67 29/120/69 31/104/67
f 31/104/67 33/121/71 35/122/67
f 35/122/67 37/123/76 39/124/70
f 39/124/70 41/125/77 43/126/70
f 43/126/70 45/127/72 47/105/68
f 47/105/68 49/128/78 51/129/67
f 51/129/67 53/130/79 55/131/80
f 55/131/80 57/132/68 63/106/67
f 57/132/68 59/133/69 63/106/67
f 59/133/69 61/134/81 63/106/67
f 63/106/67 2/108/70 7/110/67
f 31/104/67 35/122/67 47/105/68
f 35/122/67 39/124/70 47/105/68
f 39/124/70 43/126/70 47/105/68
f 47/105/68 51/129/67 63/106/67
f 51/129/67 55/131/80 63/106/67
f 63/106/67 7/110/67 15/103/67
f 15/103/67 23/117/67 31/104/67
f 63/106/67 15/103/67 47/105/68
v -2.447612 -1.103643 0.119796
v 1.828390 -1.107265 0.120642
v 1.828368 -1.115296 0.119796
v -2.447590 -1.095613 0.120642
v 1.828411 -1.099543 0.123146
v -2.447569 -1.087891 0.123146
v 1.828430 -1.092427 0.127213
v -2.447550 -1.080774 0.127213
v 1.828447 -1.086189 0.132685
v -2.447532 -1.074536 0.132685
v 1.828461 -1.081070 0.139353
v -2.447519 -1.069417 0.139353
v 1.828471 -1.077266 0.146961
v -2.447508 -1.065613 0.146961
v 1.828478 -1.074923 0.155216
v -2.447502 -1.063270 0.155216
v 1.828480 -1.074132 0.163801
v -2.447500 -1.062479 0.163801
v 1.828478 -1.074923 0.172386
v -2.447502 -1.063270 0.172386
v 1.828471 -1.077266 0.180641
v -2.447508 -1.065613 0.180641
v 1.828461 -1.081070 0.188248
v -2.447519 -1.069417 0.188248
v 1.828447 -1.086189 0.194917
v -2.447532 -1.074536 0.194917
v 1.828430 -1.092427 0.200389
v -2.447550 -1.080774 0.200389
v 1.828411 -1.099543 0.204456
v -2.447569 -1.087891 0.204456
v 1.828390 -1.107265 0.206960
v -2.447590 -1.095613 0.206960
v 1.828368 -1.115296 0.207805
v -2.447612 -1.103643 0.207805
v 1.828346 -1.123327 0.206960
v -2.447634 -1.111674 0.206960
v 1.828325 -1.131049 0.204456
v -2.447655 -1.119396 0.204456
v 1.828305 -1.138165 0.200389
v -2.447674 -1.126513 0.200389
v 1.828288 -1.144403 0.194917
v -2.447691 -1.132750 0.194917
v 1.828274 -1.149523 0.188248
v -2.447705 -1.137870 0.188248
v 1.828264 -1.153326 0.180641
v -2.447716 -1.141674 0.180641
v 1.828258 -1.155669 0.172386
v -2.447722 -1.144016 0.172386
v 1.828255 -1.156460 0.163801
v -2.447724 -1.144807 0.163801
v 1.828258 -1.155669 0.155216
v -2.447722 -1.144016 0.155216
v 1.828264 -1.153326 0.146961
v -2.447716 -1.141673 0.146961
v 1.828274 -1.149522 0.139353
v -2.447705 -1.137869 0.139353
v 1.828288 -1.144403 0.132685
v -2.447691 -1.132750 0.132685
v 1.828305 -1.138165 0.127213
v -2.447674 -1.126513 0.127213
v 1.828325 -1.131049 0.123146
v -2.447655 -1.119396 0.123146
v 1.828346 -1.123327 0.120642
v -2.447634 -1.111674 0.120642
vt 0.515574 1.000000
vt 0.490537 0.000000
vt 0.515578 0.000000
vt 0.490536 1.000000
vt 0.465917 0.000000
vt 0.465916 1.000000
vt 0.442662 0.000000
vt 0.442658 1.000000
vt 0.421664 0.000000
vt 0.421660 1.000000
vt 0.402555 0.000000
vt 0.402555 1.000000
vt 0.380167 0.000000
vt 0.380167 0.999999
vt 0.355359 0.000000
vt 0.355359 1.000000
vt 0.329083 0.000000
vt 0.329083 1.000000
vt 0.302349 0.000000
vt 0.302350 1.000000
vt 0.276185 0.000000
vt 0.276186 0.999999
vt 0.251599 0.000000
vt 0.251600 1.000000
vt 0.229529 0.000000
vt 0.229529 0.999999
vt 0.210830 0.000000
vt 0.210831 1.000000
vt 0.583725 0.000000
vt 0.604365 1.000000
vt 0.583726 0.999999
vt 0.604368 0.000000
vt 0.627376 1.000000
vt 0.627379 0.000000
vt 0.651873 1.000000
vt 0.651873 0.000000
vt 0.676914 1.000000
vt 0.676913 0.000000
vt 0.701535 1.000000
vt 0.701535 0.000000
vt 0.724789 0.999999
vt 0.724792 0.000000
vt 0.745788 0.999999
vt 0.745788 0.000000
vt 0.000000 0.000000
vt 0.019109 1.000000
vt 0.000001 1.000000
vt 0.019108 0.000000
vt 0.041494 1.000000
vt 0.041492 0.000000
vt 0.066302 1.000000
vt 0.066301 0.000000
vt 0.092577 1.000000
vt 0.092576 0.000000
vt 0.119311 1.000000
vt 0.119310 0.000000
vt 0.145475 1.000000
vt 0.145474 0.000000
vt 0.170064 1.000000
vt 0.170063 0.000000
vt 0.192131 1.000000
vt 0.192130 0.000000
vt 0.210830 1.000000
vt 0.210829 0.000000
vt 0.583724 1.000000
vt 0.563086 0.000000
vt 0.583725 0.000000
vt 0.563082 1.000000
vt 0.985531 0.005510
vt 0.933104 0.019377
vt 0.760258 0.014985
vt 0.812687 0.001118
vt 0.835819 0.000369
vt 0.860374 0.000000
vt 0.885412 0.000025
vt 0.909968 0.000442
vt 0.933101 0.001236
vt 0.953917 0.002377
vt 0.971621 0.003820
vt 0.995114 0.007382
vt 1.000000 0.009364
vt 1.000000 0.011381
vt 0.995117 0.013353
vt 0.985536 0.015206
vt 0.971624 0.016869
vt 0.953922 0.018277
vt 0.909972 0.020126
vt 0.885415 0.020495
vt 0.860379 0.020471
vt 0.835822 0.020053
vt 0.812689 0.019259
vt 0.791871 0.018119
vt 0.774167 0.016675
vt 0.750673 0.013113
vt 0.745788 0.011131
vt 0.745788 0.009115
vt 0.750674 0.007142
vt 0.760255 0.005289
vt 0.774164 0.003626
vt 0.791869 0.002218
vt 0.540075 0.000000
vt 0.540071 1.000000
vt 0.995114 0.027877
vt 0.909971 0.040621
vt 0.750673 0.033609
vt 0.835816 0.020865
vt 0.860373 0.020495
vt 0.885412 0.020520
vt 0.909968 0.020937
vt 0.933098 0.021732
vt 0.953916 0.022872
vt 0.971620 0.024315
vt 0.985531 0.026005
vt 0.999999 0.029860
vt 0.999999 0.031876
vt 0.995114 0.033849
vt 0.985532 0.035702
vt 0.971623 0.037365
vt 0.953918 0.038773
vt 0.933103 0.039873
vt 0.885414 0.040991
vt 0.860375 0.040966
vt 0.835819 0.040549
vt 0.812689 0.039754
vt 0.791871 0.038614
vt 0.774164 0.037171
vt 0.760256 0.035481
vt 0.745788 0.031626
vt 0.745788 0.029610
vt 0.750673 0.027637
vt 0.760255 0.025784
vt 0.774164 0.024121
vt 0.791868 0.022713
vt 0.812684 0.021613
vn 0.0003 0.1048 -0.9945
vn 0.0008 0.3085 -0.9512
vn 0.0014 0.4962 -0.8682
vn 0.0018 0.6594 -0.7518
vn 0.0018 0.6594 -0.7517
vn 0.0022 0.7932 -0.6089
vn 0.0022 0.7932 -0.6090
vn 0.0024 0.8944 -0.4472
vn 0.0026 0.9620 -0.2730
vn 0.0027 0.9958 -0.0918
vn 0.0027 0.9958 -0.0917
vn 0.0027 0.9958 0.0918
vn 0.0026 0.9620 0.2731
vn 0.0026 0.9620 0.2730
vn 0.0024 0.8944 0.4473
vn 0.0024 0.8944 0.4472
vn 0.0022 0.7933 0.6089
vn 0.0022 0.7932 0.6089
vn 0.0018 0.6594 0.7518
vn 0.0014 0.4961 0.8682
vn 0.0014 0.4962 0.8682
vn 0.0008 0.3085 0.9512
vn 0.0003 0.1047 0.9945
vn 0.0003 0.1046 0.9945
vn -0.0003 -0.1046 0.9945
vn -0.0008 -0.3085 0.9512
vn -0.0014 -0.4961 0.8682
vn -0.0014 -0.4962 0.8682
vn -0.0018 -0.6595 0.7517
vn -0.0018 -0.6594 0.7517
vn -0.0022 -0.7932 0.6090
vn -0.0022 -0.7932 0.6089
vn -0.0024 -0.8944 0.4473
vn -0.0024 -0.8945 0.4472
vn -0.0026 -0.9620 0.2729
vn -0.0026 -0.9620 0.2730
vn -0.0027 -0.9958 0.0917
vn -0.0027 -0.9958 0.0918
vn -0.0027 -0.9958 -0.0917
vn -0.0027 -0.9958 -0.0918
vn -0.0026 -0.9620 -0.2730
vn -0.0026 -0.9620 -0.2731
vn -0.0024 -0.8944 -0.4472
vn -0.0022 -0.7932 -0.6089
vn -0.0022 -0.7932 -0.6090
vn -0.0018 -0.6595 -0.7517
vn -0.0018 -0.6594 -0.7517
vn -0.0014 -0.4961 -0.8682
vn -0.0014 -0.4962 -0.8682
vn -1.0000 0.0027 -0.0000
vn -1.0000 0.0027 0.0001
vn -1.0000 0.0031 -0.0001
vn -1.0000 0.0027 -0.0001
vn -1.0000 0.0027 -0.0002
vn -1.0000 0.0024 0.0000
vn -1.0000 0.0026 0.0000
vn -1.0000 0.0026 0.0001
vn -1.0000 0.0026 -0.0001
vn -1.0000 0.0028 -0.0000
vn -1.0000 0.0028 0.0001
vn -1.0000 0.0025 -0.0001
vn -1.0000 0.0028 -0.0001
vn -1.0000 0.0030 0.0000
vn -1.0000 0.0030 0.0001
vn -1.0000 0.0026 0.0002
vn -0.0008 -0.3085 -0.9512
vn -0.0003 -0.1048 -0.9945
vn 1.0000 -0.0027 -0.0000
vn 1.0000 -0.0028 0.0000
vn 1.0000 -0.0027 -0.0001
vn 1.0000 -0.0028 0.0001
vn 1.0000 -0.0027 0.0001
vn 1.0000 -0.0026 -0.0001
vn 1.0000 -0.0029 0.0000
vn 1.0000 -0.0026 0.0000
vn 1.0000 -0.0030 0.0000
vn 1.0000 -0.0029 0.0001
vn 1.0000 -0.0033 0.0000
vn 1.0000 -0.0029 -0.0001
vn 1.0000 -0.0028 -0.0001
s 1
f 65/135/82 66/136/82 67/137/82
f 65/135/82 68/138/82 66/136/82
s 2
f 68/138/83 69/139/83 66/136/83
f 68/138/83 70/140/83 69/139/83
s 3
f 70/140/84 71/141/84 69/139/84
f 70/140/84 72/142/84 71/141/84
s 4
f 72/142/85 73/143/86 71/141/86
f 72/142/85 74/144/85 73/143/86
s 5
f 74/144/87 75/145/88 73/143/88
f 74/144/87 76/146/87 75/145/88
s 6
f 76/146/89 77/147/89 75/145/89
f 76/146/89 78/148/89 77/147/89
s 7
f 78/148/90 79/149/90 77/147/90
f 78/148/90 80/150/90 79/149/90
s 8
f 80/150/91 81/151/92 79/149/92
f 80/150/91 82/152/91 81/151/92
s 9
f 82/152/93 83/153/93 81/151/93
f 82/152/93 84/154/93 83/153/93
s 10
f 84/154/94 85/155/95 83/153/95
f 84/154/94 86/156/94 85/155/95
s 11
f 86/156/96 87/157/97 85/155/97
f 86/156/96 88/158/96 87/157/97
s 12
f 88/158/98 89/159/99 87/157/99
f 88/158/98 90/160/98 89/159/99
s 13
f 90/160/100 91/161/100 89/159/100
f 90/160/100 92/162/100 91/161/100
s 14
f 92/163/101 93/164/102 91/165/102
f 92/163/101 94/166/101 93/164/102
s 15
f 94/166/103 95/167/103 93/164/103
f 94/166/103 96/168/103 95/167/103
s 16
f 96/168/104 97/169/105 95/167/105
f 96/168/104 98/170/104 97/169/105
s 17
f 98/170/106 99/171/106 97/169/106
f 98/170/106 100/172/106 99/171/106
s 18
f 100/172/107 101/173/107 99/171/107
f 100/172/107 102/174/107 101/173/107
s 19
f 102/174/108 103/175/109 101/173/109
f 102/174/108 104/176/108 103/175/109
s 20
f 104/176/110 105/177/111 103/175/111
f 104/176/110 106/178/110 105/177/111
s 21
f 106/179/112 107/180/113 105/181/113
f 106/179/112 108/182/112 107/180/113
s 22
f 108/182/114 109/183/115 107/180/115
f 108/182/114 110/184/114 109/183/115
s 23
f 110/184/116 111/185/117 109/183/117
f 110/184/116 112/186/116 111/185/117
s 24
f 112/186/118 113/187/119 111/185/119
f 112/186/118 114/188/118 113/187/119
s 25
f 114/188/120 115/189/121 113/187/121
f 114/188/120 116/190/120 115/189/121
s 26
f 116/190/122 117/191/123 115/189/123
f 116/190/122 118/192/122 117/191/123
s 27
f 118/192/124 119/193/124 117/191/124
f 118/192/124 120/194/124 119/193/124
s 28
f 120/194/125 121/195/126 119/193/126
f 120/194/125 122/196/125 121/195/126
s 29
f 122/196/127 123/197/128 121/195/128
f 122/196/127 124/198/127 123/197/128
s 30
f 124/199/129 125/200/130 123/201/130
f 124/199/129 126/202/129 125/200/130
s 31
f 118/203/131 102/204/131 86/205/131
f 70/206/131 68/207/132 65/208/131
f 65/208/131 128/209/131 70/206/131
f 128/209/131 126/210/131 70/206/131
f 126/210/131 124/211/133 122/212/134
f 122/212/134 120/213/135 118/203/131
f 118/203/131 116/214/131 114/215/136
f 114/215/136 112/216/137 118/203/131
f 112/216/137 110/217/131 118/203/131
f 110/217/131 108/218/138 102/204/131
f 108/218/138 106/219/138 102/204/131
f 106/219/138 104/220/132 102/204/131
f 102/204/131 100/221/134 98/222/131
f 98/222/131 96/223/139 94/224/140
f 94/224/140 92/225/134 90/226/141
f 90/226/141 88/227/142 86/205/131
f 86/205/131 84/228/134 82/229/143
f 82/229/143 80/230/144 86/205/131
f 80/230/144 78/231/137 86/205/131
f 78/231/137 76/232/145 74/233/131
f 74/233/131 72/234/146 70/206/131
f 126/210/131 122/212/134 70/206/131
f 122/212/134 118/203/131 70/206/131
f 102/204/131 98/222/131 86/205/131
f 98/222/131 94/224/140 86/205/131
f 94/224/140 90/226/141 86/205/131
f 78/231/137 74/233/131 86/205/131
f 74/233/131 70/206/131 86/205/131
f 118/203/131 110/217/131 102/204/131
f 70/206/131 118/203/131 86/205/131
s 32
f 126/202/147 127/235/147 125/200/147
f 126/202/147 128/236/147 127/235/147
s 33
f 128/236/148 67/137/148 127/235/148
f 128/236/148 65/135/148 67/137/148
s 34
f 79/237/149 95/238/149 111/239/150
f 127/240/149 67/241/151 66/242/152
f 66/242/152 69/243/153 71/244/149
f 71/244/149 73/245/154 75/246/152
f 75/246/152 77/247/155 71/244/149
f 77/247/155 79/237/149 71/244/149
f 79/237/149 81/248/149 83/249/156
f 83/249/156 85/250/150 79/237/149
f 85/250/150 87/251/149 79/237/149
f 87/251/149 89/252/157 95/238/149
f 89/252/157 91/253/156 95/238/149
f 91/253/156 93/254/151 95/238/149
f 95/238/149 97/255/153 99/256/150
f 99/256/150 101/257/151 103/258/152
f 103/258/152 105/259/157 107/260/152
f 107/260/152 109/261/158 111/239/150
f 111/239/150 113/262/159 115/263/150
f 115/263/150 117/264/160 119/265/161
f 119/265/161 121/266/150 127/240/149
f 121/266/150 123/267/161 127/240/149
f 123/267/161 125/268/153 127/240/149
f 127/240/149 66/242/152 71/244/149
f 95/238/149 99/256/150 111/239/150
f 99/256/150 103/258/152 111/239/150
f 103/258/152 107/260/152 111/239/150
f 111/239/150 115/263/150 127/240/149
f 115/263/150 119/265/161 127/240/149
f 127/240/149 71/244/149 79/237/149
f 79/237/149 87/251/149 95/238/149
f 127/240/149 79/237/149 111/239/150
