# Blender v2.79 (sub 0) OBJ File: 'body.blend'
# www.blender.org
o body2
v 0.012753 0.352375 -1.683953
v 0.012301 0.163354 -1.641101
v 0.011177 -0.033354 -1.534528
v 0.009425 -0.230190 -1.368331
v 0.007111 -0.419589 -1.148897
v 0.004325 -0.594273 -0.884658
v 0.001174 -0.747529 -0.585770
v -0.002222 -0.873467 -0.263717
v -0.005731 -0.967248 0.069124
v -0.018251 -0.969790 1.256611
v -0.022878 -0.599796 1.695435
v 0.012169 0.515035 -1.628590
v -0.088092 0.400190 -1.668974
v -0.185514 0.257146 -1.611719
v -0.276005 0.102811 -1.491872
v -0.356089 -0.056885 -1.314041
v -0.422687 -0.215804 -1.085058
v -0.473242 -0.367839 -0.813724
v -0.505808 -0.507147 -0.510466
v -0.519136 -0.628376 -0.186938
v -0.512713 -0.726866 0.144427
v -0.486786 -0.798833 0.470896
v -0.442351 -0.841510 0.779921
v -0.381116 -0.853258 1.059628
v -0.305434 -0.833625 1.299267
v -0.218213 -0.783366 1.489629
v -0.122806 -0.704411 1.623399
v -0.066445 0.379887 -1.675557
v -0.143051 0.217322 -1.624632
v -0.214359 0.044995 -1.510620
v -0.277629 -0.130470 -1.337902
v -0.330428 -0.302331 -1.113116
v -0.370728 -0.463983 -0.844900
v -0.396981 -0.609213 -0.543562
v -0.408177 -0.732442 -0.220683
v -0.403886 -0.828932 0.111331
v -0.384273 -0.894977 0.439720
v -0.350091 -0.928037 0.751863
v -0.302656 -0.926843 1.035767
v -0.243788 -0.891441 1.280519
v -0.175751 -0.823190 1.476716
v -0.101159 -0.724714 1.616815
v -0.041777 0.364801 -1.680359
v -0.094662 0.187730 -1.634050
v -0.144109 0.002034 -1.524293
v -0.188217 -0.185149 -1.355304
v -0.225291 -0.366627 -1.133579
v -0.253907 -0.535424 -0.867637
v -0.272964 -0.685055 -0.567700
v -0.281730 -0.809770 -0.245293
v -0.279869 -0.904774 0.087194
v -0.267451 -0.966418 0.416983
v -0.244955 -0.992333 0.731401
v -0.213244 -0.981522 1.018365
v -0.173538 -0.934401 1.266847
v -0.127362 -0.852782 1.467298
v -0.076490 -0.739799 1.612014
v -0.015035 0.355512 -1.683194
v -0.042206 0.169507 -1.639611
v -0.067955 -0.024421 -1.532365
v -0.091291 -0.218821 -1.365579
v -0.111318 -0.406220 -1.145660
v -0.127267 -0.579418 -0.881062
v -0.138523 -0.731758 -0.581951
v -0.144656 -0.857388 -0.259824
v -0.145428 -0.951477 0.072942
v -0.140811 -1.010412 0.403558
v -0.130982 -1.031926 0.719319
v -0.116318 -1.015193 1.008090
v -0.097384 -0.960857 1.258774
v -0.074906 -0.871004 1.461737
v -0.049748 -0.749089 1.609179
v -0.009219 -1.025267 0.399962
v -0.012552 -1.045295 0.716082
v -0.015602 -1.026563 1.005337
v -0.020398 -0.877157 1.460247
v -0.021961 -0.752226 1.608420
v 0.008158 0.352375 -1.684027
v 0.007235 0.163354 -1.641182
v 0.004939 -0.033354 -1.534628
v 0.001358 -0.230190 -1.368461
v -0.003369 -0.419589 -1.149066
v -0.009062 -0.594273 -0.884873
v -0.015501 -0.747529 -0.586037
v -0.022440 -0.873467 -0.264041
v -0.029610 -0.967248 0.068741
v -0.055194 -0.969790 1.256018
v -0.064648 -0.599796 1.694765
v 0.006966 0.515035 -1.628673
v 0.085899 -0.239151 -1.426287
v 0.171243 -0.053282 -1.469084
v 0.089480 -0.084114 -1.478511
v 0.108471 0.400190 -1.665820
v 0.204005 0.257146 -1.605469
v 0.290605 0.102811 -1.482781
v 0.364943 -0.056885 -1.302472
v 0.424161 -0.215804 -1.071470
v 0.465984 -0.367839 -0.798654
v 0.488804 -0.507147 -0.494507
v 0.491746 -0.628376 -0.170718
v 0.474695 -0.726866 0.160271
v 0.438308 -0.798833 0.485739
v 0.383981 -0.841510 0.793180
v 0.313804 -0.853258 1.070778
v 0.230472 -0.833625 1.307866
v 0.137189 -0.783366 1.495332
v 0.037539 -0.704411 1.625971
v 0.087046 0.379887 -1.673095
v 0.161979 0.217322 -1.619738
v 0.229592 0.044995 -1.503496
v 0.287288 -0.130470 -1.328838
v 0.332848 -0.302331 -1.102473
v 0.364523 -0.463983 -0.833103
v 0.381094 -0.609213 -0.531078
v 0.381926 -0.732442 -0.208005
v 0.366985 -0.828932 0.123700
v 0.336847 -0.894977 0.451290
v 0.292669 -0.928037 0.762177
v 0.236149 -0.926843 1.044412
v 0.169460 -0.891441 1.287150
v 0.095163 -0.823190 1.481063
v 0.016115 -0.724714 1.618697
v 0.062544 0.364801 -1.678685
v 0.113917 0.187730 -1.630703
v 0.159817 0.002034 -1.519416
v 0.198481 -0.185149 -1.349099
v 0.228422 -0.366627 -1.126299
v 0.248491 -0.535424 -0.859576
v 0.257916 -0.685055 -0.559182
v 0.256334 -0.809770 -0.236660
v 0.243806 -0.904774 0.095596
v 0.220815 -0.966418 0.424817
v 0.188243 -0.992333 0.738351
v 0.147342 -0.981522 1.024150
v 0.099684 -0.934401 1.271231
v 0.047101 -0.852782 1.470097
v -0.008387 -0.739799 1.613107
v 0.035907 0.355512 -1.682376
v 0.061666 0.169507 -1.637944
v 0.083961 -0.024421 -1.529928
v 0.101934 -0.218821 -1.362478
v 0.114896 -0.406220 -1.142031
v 0.122347 -0.579418 -0.877057
v 0.124002 -0.731758 -0.577739
v 0.119796 -0.857388 -0.255581
v 0.109892 -0.951477 0.077039
v 0.094671 -1.010412 0.407336
v 0.074716 -1.031926 0.722619
v 0.050796 -1.015193 1.010771
v 0.023828 -0.960857 1.260719
v -0.005150 -0.871004 1.462856
v -0.035024 -0.749089 1.609416
v -0.036738 -1.025267 0.399520
v -0.043549 -1.045295 0.715585
v -0.049780 -1.026563 1.004789
v -0.059581 -0.877157 1.459618
v -0.062773 -0.752226 1.607765
v 0.003961 -0.087107 -1.489251
v 0.011428 0.010512 -1.558294
v -0.061486 0.024296 -1.559307
v 0.005702 0.011148 -1.558132
v 0.091912 -0.214456 -1.446977
v 0.005673 0.008557 -1.556727
v 0.096649 -0.161648 -1.411725
v 0.017349 -0.086638 -1.487570
v 0.065667 -0.084947 -1.481501
v 0.002513 -0.166734 -1.422030
v 0.011554 -0.081157 -1.493112
v 0.044517 -0.112336 -1.461585
v -0.073888 -0.073848 -1.489959
v 0.010340 -0.127452 -1.455077
v -0.042607 -0.220197 -1.397531
v 0.005255 -0.033189 -1.533942
v 0.103251 -0.017694 -1.527255
v 0.120955 -0.011519 -1.524801
v 0.084041 -0.033300 -1.525643
v 0.084151 -0.045489 -1.519759
v 0.084453 -0.078970 -1.503600
v 0.079076 0.018073 -1.553597
v 0.079915 -0.027592 -1.527870
v 0.057464 -0.045183 -1.516455
v 0.077421 -0.025161 -1.530317
v 0.056583 -0.027516 -1.531556
v 0.048237 0.009236 -1.552525
v -0.015226 -0.167712 -1.525153
v 0.058681 -0.069571 -1.495609
v 0.104697 0.028832 -1.550995
v 0.125533 0.014114 -1.536671
v 0.031994 -0.204722 -1.399580
v 0.111775 -0.064023 -1.502413
vn -0.4705 -0.6829 0.5587
vn -0.5163 -0.7869 0.3378
vn -0.4207 -0.7262 0.5437
vn -0.6982 -0.6411 -0.3186
vn -0.6106 -0.6646 -0.4306
vn -0.6203 -0.7061 -0.3414
vn -0.2763 -0.5502 0.7880
vn -0.2561 -0.5814 0.7723
vn -0.7020 -0.6729 -0.2332
vn -0.6240 -0.7389 -0.2545
vn -0.1813 0.1231 -0.9757
vn 0.0120 0.3218 -0.9467
vn -0.1801 0.0840 -0.9800
vn -0.0994 -0.4775 0.8730
vn -0.7000 -0.6991 -0.1457
vn -0.6222 -0.7652 -0.1653
vn -0.4555 -0.2048 -0.8663
vn -0.4057 -0.2486 -0.8795
vn -0.6914 -0.7206 -0.0512
vn -0.6144 -0.7859 -0.0690
vn -0.5698 -0.3696 -0.7339
vn -0.5048 -0.4207 -0.7537
vn -0.6737 -0.7368 0.0567
vn -0.5984 -0.8001 0.0408
vn -0.6327 -0.4767 -0.6102
vn -0.5607 -0.5333 -0.6334
vn -0.6411 -0.7443 0.1871
vn -0.5692 -0.8038 0.1728
vn -0.6678 -0.5492 -0.5023
vn -0.5925 -0.6098 -0.5264
vn -0.5813 -0.7338 0.3515
vn -0.6877 -0.6013 -0.4068
vn -0.4363 -0.8945 -0.0970
vn -0.4245 -0.9052 0.0170
vn -0.3528 -0.4989 -0.7915
vn -0.3943 -0.6243 -0.6743
vn -0.4030 -0.9022 0.1538
vn -0.4184 -0.7091 -0.5676
vn -0.3646 -0.8731 0.3236
vn -0.4324 -0.7693 -0.4703
vn -0.2960 -0.7922 0.5336
vn -0.4400 -0.8141 -0.3790
vn -0.1806 -0.6180 0.7651
vn -0.4429 -0.8485 -0.2893
vn -0.1227 0.0566 -0.9908
vn -0.4419 -0.8751 -0.1971
vn -0.2808 -0.3082 -0.9089
vn -0.1552 -0.8347 0.5283
vn -0.0966 -0.6413 0.7611
vn -0.2273 -0.8863 -0.4034
vn -0.2294 -0.9220 -0.3117
vn -0.0581 0.0390 -0.9975
vn -0.2293 -0.9488 -0.2171
vn -0.1399 -0.3463 -0.9276
vn -0.2267 -0.9672 -0.1145
vn -0.1634 -0.4592 -0.8732
vn -0.2209 -0.9753 0.0026
vn -0.1963 -0.5316 -0.8239
vn -0.3763 -0.5906 -0.7139
vn -0.2100 -0.9672 0.1426
vn -0.2011 -0.6842 -0.7010
vn -0.2146 -0.7750 -0.5944
vn -0.1903 -0.9295 0.3158
vn -0.2227 -0.8391 -0.4963
vn 0.1459 -0.6879 -0.7110
vn -0.0985 -0.7012 -0.7061
vn -0.1122 -0.9937 -0.0020
vn -0.1073 -0.9845 0.1384
vn -0.1059 -0.7931 -0.5997
vn -0.0981 -0.9450 0.3121
vn -0.1105 -0.8579 -0.5017
vn -0.0812 -0.8470 0.5253
vn -0.1134 -0.9055 -0.4087
vn -0.0525 -0.6487 0.7592
vn -0.1149 -0.9414 -0.3171
vn -0.0236 0.0329 -0.9992
vn -0.1154 -0.9681 -0.2223
vn -0.0659 -0.3584 -0.9312
vn -0.1146 -0.9862 -0.1194
vn 0.4593 -0.8013 0.3833
vn 0.1125 0.3760 0.9197
vn 0.4009 -0.4552 -0.7950
vn 0.5368 -0.5417 -0.6468
vn -0.1750 -0.9276 0.3299
vn 0.2565 -0.4644 -0.8476
vn -0.6079 -0.5567 -0.5662
vn 0.1547 -0.5017 -0.8511
vn -0.6539 -0.6509 -0.3857
vn -0.3460 0.4053 0.8462
vn 0.4524 -0.6829 0.5735
vn 0.5053 -0.7869 0.3542
vn 0.5697 -0.7338 0.3700
vn 0.7080 -0.6411 -0.2961
vn 0.6241 -0.6646 -0.4107
vn 0.7004 -0.6013 -0.3845
vn 0.2509 -0.5502 0.7964
vn 0.4031 -0.7262 0.5570
vn 0.7091 -0.6729 -0.2105
vn 0.6310 -0.7061 -0.3213
vn 0.2125 0.1231 -0.9694
vn 0.2114 0.0840 -0.9738
vn 0.0183 0.3218 -0.9466
vn 0.0713 -0.4775 0.8757
vn 0.2311 -0.5814 0.7801
vn 0.7043 -0.6991 -0.1232
vn 0.6318 -0.7389 -0.2343
vn 0.4831 -0.2048 -0.8513
vn 0.6927 -0.7206 -0.0291
vn 0.6272 -0.7652 -0.1453
vn 0.5931 -0.3696 -0.7152
vn 0.4337 -0.2486 -0.8660
vn 0.6716 -0.7368 0.0783
vn 0.6163 -0.7859 -0.0493
vn 0.6519 -0.4767 -0.5896
vn 0.5288 -0.4207 -0.7371
vn 0.6348 -0.7443 0.2076
vn 0.5968 -0.8001 0.0600
vn 0.6836 -0.5492 -0.4806
vn 0.5807 -0.5333 -0.6151
vn 0.5633 -0.8038 0.1910
vn 0.6090 -0.6098 -0.5072
vn 0.4392 -0.8945 -0.0830
vn 0.4238 -0.9052 0.0306
vn 0.4158 -0.6243 -0.6613
vn 0.3979 -0.9022 0.1666
vn 0.4364 -0.7091 -0.5538
vn 0.3540 -0.8731 0.3352
vn 0.4472 -0.7693 -0.4562
vn 0.2788 -0.7922 0.5429
vn 0.4519 -0.8141 -0.3647
vn 0.1544 0.0566 -0.9864
vn 0.1559 -0.6180 0.7705
vn 0.4520 -0.8485 -0.2750
vn 0.4480 -0.8751 -0.1828
vn 0.3099 -0.3082 -0.8994
vn 0.1382 -0.8347 0.5330
vn 0.2401 -0.8863 -0.3959
vn 0.0900 0.0390 -0.9951
vn 0.0721 -0.6413 0.7638
vn 0.2393 -0.9220 -0.3042
vn 0.2361 -0.9488 -0.2097
vn 0.2731 -0.4439 -0.8534
vn 0.2731 -0.4440 -0.8534
vn 0.2303 -0.9672 -0.1072
vn 0.2159 -0.6257 -0.7496
vn 0.2207 -0.9753 0.0097
vn 0.2235 -0.6842 -0.6942
vn 0.2053 -0.9672 0.1493
vn 0.2336 -0.7750 -0.5872
vn 0.1801 -0.9295 0.3217
vn 0.2385 -0.8391 -0.4888
vn 0.1176 -0.6418 -0.7577
vn 0.1122 -0.9937 0.0016
vn 0.1210 -0.7012 -0.7026
vn 0.1028 -0.9845 0.1418
vn 0.1251 -0.7931 -0.5961
vn 0.0881 -0.9450 0.3150
vn 0.1266 -0.8579 -0.4979
vn 0.0644 -0.8470 0.5276
vn 0.1264 -0.9055 -0.4049
vn 0.0556 0.0329 -0.9979
vn 0.0281 -0.6487 0.7605
vn 0.1250 -0.9414 -0.3132
vn 0.1696 -0.3463 -0.9227
vn 0.1224 -0.9681 -0.2185
vn 0.1943 -0.5567 -0.8076
vn 0.1023 -0.4551 -0.8845
vn 0.1900 -0.4610 -0.8668
vn 0.1184 -0.9862 -0.1157
vn -0.0748 -0.4707 -0.8791
vn -0.0775 -0.4746 -0.8768
vn -0.1232 -0.8267 0.5490
vn -0.0777 -0.6266 -0.7754
vn -0.4459 -0.8827 0.1478
vn 0.1125 -0.5650 -0.8174
vn -0.4473 -0.8914 0.0722
vn 0.2695 -0.4306 -0.8614
vn 0.3205 0.7593 -0.5663
vn -0.5111 0.5538 0.6572
vn 0.0511 -0.4210 -0.9056
vn 0.0957 -0.3584 -0.9286
s 1
f 26//1 40//2 41//3
f 19//4 33//5 34//6
f 27//7 41//3 42//8
f 20//9 34//6 35//10
f 13//11 12//12 28//13
f 11//14 27//7 42//8
f 21//15 35//10 36//16
f 14//17 28//13 29//18
f 22//19 36//16 37//20
f 15//21 29//18 30//22
f 23//23 37//20 38//24
f 16//25 30//22 31//26
f 24//27 38//24 39//28
f 17//29 31//26 32//30
f 25//31 39//28 40//2
f 18//32 32//30 33//5
f 38//24 52//33 53//34
f 31//26 45//35 46//36
f 39//28 53//34 54//37
f 32//30 46//36 47//38
f 40//2 54//37 55//39
f 33//5 47//38 48//40
f 41//3 55//39 56//41
f 34//6 48//40 49//42
f 42//8 56//41 57//43
f 35//10 49//42 50//44
f 28//13 12//12 43//45
f 11//14 42//8 57//43
f 36//16 50//44 51//46
f 29//18 43//45 44//47
f 37//20 51//46 52//33
f 30//22 44//47 45//35
f 57//43 71//48 72//49
f 50//44 64//50 65//51
f 43//45 12//12 58//52
f 11//14 57//43 72//49
f 51//46 65//51 66//53
f 44//47 58//52 59//54
f 52//33 66//53 67//55
f 44//47 59//54 160//56
f 53//34 67//55 68//57
f 45//35 60//58 170//59
f 54//37 68//57 69//60
f 47//38 61//61 62//62
f 55//39 69//60 70//63
f 48//40 62//62 63//64
f 56//41 70//63 71//48
f 49//42 63//64 64//50
f 61//61 171//65 4//66
f 69//60 74//67 75//68
f 62//62 4//66 5//69
f 70//63 75//68 10//70
f 63//64 5//69 6//71
f 71//48 10//70 76//72
f 64//50 6//71 7//73
f 72//49 76//72 77//74
f 65//51 7//73 8//75
f 58//52 12//12 1//76
f 11//14 72//49 77//74
f 66//53 8//75 9//77
f 59//54 1//76 2//78
f 67//55 9//77 73//79
f 60//58 162//80 3//81
f 68//57 73//79 74//67
f 125//82 91//83 90//84
f 174//85 176//86 140//87
f 92//88 176//86 177//89
f 91//83 92//88 90//84
f 106//90 120//91 105//92
f 99//93 113//94 98//95
f 107//96 121//97 106//90
f 100//98 114//99 99//93
f 93//100 108//101 89//102
f 88//103 122//104 107//96
f 101//105 115//106 100//98
f 94//107 108//101 93//100
f 102//108 116//109 101//105
f 95//110 109//111 94//107
f 103//112 117//113 102//108
f 96//114 110//115 95//110
f 104//116 118//117 103//112
f 97//118 111//119 96//114
f 105//92 119//120 104//116
f 98//95 112//121 97//118
f 118//117 132//122 117//113
f 91//83 125//82 110//115
f 119//120 133//123 118//117
f 112//121 126//124 111//119
f 120//91 134//125 119//120
f 113//94 127//126 112//121
f 121//97 135//127 120//91
f 114//99 128//128 113//94
f 122//104 136//129 121//97
f 115//106 129//130 114//99
f 108//101 123//131 89//102
f 88//103 137//132 122//104
f 116//109 130//133 115//106
f 109//111 123//131 108//101
f 117//113 131//134 116//109
f 110//115 124//135 109//111
f 137//132 151//136 136//129
f 130//133 144//137 129//130
f 123//131 138//138 89//102
f 88//103 152//139 137//132
f 131//134 145//140 130//133
f 124//135 138//138 123//131
f 132//122 146//141 131//134
f 187//142 125//82 188//143
f 133//123 147//144 132//122
f 164//145 92//88 91//83
f 134//125 148//146 133//123
f 127//126 141//147 126//124
f 135//127 149//148 134//125
f 128//128 142//149 127//126
f 136//129 150//150 135//127
f 129//130 143//151 128//128
f 167//152 169//152 164//145
f 149//148 154//153 148//146
f 142//149 81//154 141//147
f 150//150 155//155 149//148
f 143//151 82//156 142//149
f 151//136 87//157 150//150
f 144//137 83//158 143//151
f 152//139 156//159 151//136
f 145//140 84//160 144//137
f 138//138 78//161 89//102
f 88//103 157//162 152//139
f 146//141 85//163 145//140
f 139//164 78//161 138//138
f 147//144 86//165 146//141
f 182//166 184//167 179//168
f 148//146 153//169 147//144
f 186//152 181//152 180//152
f 140//87 180//152 182//166
f 163//170 160//56 161//171
f 160//56 59//54 2//78
f 160//56 162//80 60//58
f 163//170 3//81 162//80
f 168//152 165//152 158//152
f 164//145 166//152 92//88
f 166//152 169//152 165//152
f 165//152 167//152 158//152
f 171//65 170//59 172//172
f 172//172 170//59 60//58
f 60//58 173//173 172//172
f 173//173 171//65 172//172
f 183//174 80//175 184//167
f 183//174 185//176 182//166
f 166//152 165//152 186//152
f 182//166 181//152 183//174
f 168//152 158//152 80//175
f 124//135 125//82 187//142
f 174//85 188//143 175//177
f 176//86 189//178 177//89
f 189//178 178//179 177//89
f 190//180 125//82 90//84
f 190//180 174//85 175//177
f 26//1 25//31 40//2
f 19//4 18//32 33//5
f 27//7 26//1 41//3
f 20//9 19//4 34//6
f 21//15 20//9 35//10
f 14//17 13//11 28//13
f 22//19 21//15 36//16
f 15//21 14//17 29//18
f 23//23 22//19 37//20
f 16//25 15//21 30//22
f 24//27 23//23 38//24
f 17//29 16//25 31//26
f 25//31 24//27 39//28
f 18//32 17//29 32//30
f 38//24 37//20 52//33
f 31//26 30//22 45//35
f 39//28 38//24 53//34
f 32//30 31//26 46//36
f 40//2 39//28 54//37
f 33//5 32//30 47//38
f 41//3 40//2 55//39
f 34//6 33//5 48//40
f 42//8 41//3 56//41
f 35//10 34//6 49//42
f 36//16 35//10 50//44
f 29//18 28//13 43//45
f 37//20 36//16 51//46
f 30//22 29//18 44//47
f 57//43 56//41 71//48
f 50//44 49//42 64//50
f 51//46 50//44 65//51
f 44//47 43//45 58//52
f 52//33 51//46 66//53
f 60//58 45//35 160//56
f 45//35 44//47 160//56
f 53//34 52//33 67//55
f 61//61 46//36 170//59
f 46//36 45//35 170//59
f 54//37 53//34 68//57
f 47//38 46//36 61//61
f 55//39 54//37 69//60
f 48//40 47//38 62//62
f 56//41 55//39 70//63
f 49//42 48//40 63//64
f 61//61 170//59 171//65
f 69//60 68//57 74//67
f 62//62 61//61 4//66
f 70//63 69//60 75//68
f 63//64 62//62 5//69
f 71//48 70//63 10//70
f 64//50 63//64 6//71
f 72//49 71//48 76//72
f 65//51 64//50 7//73
f 66//53 65//51 8//75
f 59//54 58//52 1//76
f 67//55 66//53 9//77
f 68//57 67//55 73//79
f 174//85 189//178 176//86
f 178//179 90//84 92//88
f 92//88 140//87 176//86
f 177//89 178//179 92//88
f 106//90 121//97 120//91
f 99//93 114//99 113//94
f 107//96 122//104 121//97
f 100//98 115//106 114//99
f 101//105 116//109 115//106
f 94//107 109//111 108//101
f 102//108 117//113 116//109
f 95//110 110//115 109//111
f 103//112 118//117 117//113
f 96//114 111//119 110//115
f 104//116 119//120 118//117
f 97//118 112//121 111//119
f 105//92 120//91 119//120
f 98//95 113//94 112//121
f 118//117 133//123 132//122
f 110//115 111//119 91//83
f 111//119 126//124 91//83
f 119//120 134//125 133//123
f 112//121 127//126 126//124
f 120//91 135//127 134//125
f 113//94 128//128 127//126
f 121//97 136//129 135//127
f 114//99 129//130 128//128
f 122//104 137//132 136//129
f 115//106 130//133 129//130
f 116//109 131//134 130//133
f 109//111 124//135 123//131
f 117//113 132//122 131//134
f 110//115 125//82 124//135
f 137//132 152//139 151//136
f 130//133 145//140 144//137
f 131//134 146//141 145//140
f 124//135 139//164 138//138
f 132//122 147//144 146//141
f 125//82 175//177 188//143
f 188//143 174//85 187//142
f 174//85 140//87 179//168
f 187//142 174//85 179//168
f 133//123 148//146 147//144
f 91//83 126//124 164//145
f 126//124 141//147 164//145
f 134//125 149//148 148//146
f 127//126 142//149 141//147
f 135//127 150//150 149//148
f 128//128 143//151 142//149
f 136//129 151//136 150//150
f 129//130 144//137 143//151
f 164//145 141//147 81//154
f 81//154 167//152 164//145
f 149//148 155//155 154//153
f 142//149 82//156 81//154
f 150//150 87//157 155//155
f 143//151 83//158 82//156
f 151//136 156//159 87//157
f 144//137 84//160 83//158
f 152//139 157//162 156//159
f 145//140 85//163 84//160
f 146//141 86//165 85//163
f 139//164 79//181 78//161
f 147//144 153//169 86//165
f 179//168 140//87 182//166
f 182//166 185//176 184//167
f 148//146 154//153 153//169
f 140//87 92//88 180//152
f 92//88 186//152 180//152
f 159//171 3//81 163//170
f 163//170 162//80 160//56
f 161//171 159//171 163//170
f 2//78 159//171 161//171
f 161//171 160//56 2//78
f 164//145 169//152 166//152
f 165//152 169//152 167//152
f 60//58 3//81 173//173
f 173//173 3//81 171//65
f 139//164 179//168 184//167
f 139//164 184//167 79//181
f 184//167 185//176 183//174
f 80//175 79//181 184//167
f 168//152 181//152 165//152
f 181//152 186//152 165//152
f 186//152 92//88 166//152
f 182//166 180//152 181//152
f 80//175 183//174 181//152
f 181//152 168//152 80//175
f 187//142 179//168 139//164
f 139//164 124//135 187//142
f 189//178 190//180 178//179
f 90//84 178//179 190//180
f 190//180 175//177 125//82
f 190//180 189//178 174//85
