# Blender v2.79 (sub 0) OBJ File: 'head.blend'
# www.blender.org
o ear
v -0.058819 -0.054874 -0.140142
v -0.028467 -0.053918 -0.144663
v 0.003120 -0.055214 -0.143504
v 0.034728 -0.058712 -0.136708
v 0.065143 -0.064277 -0.124537
v 0.093195 -0.071695 -0.107459
v 0.117806 -0.080682 -0.086129
v 0.138032 -0.090892 -0.061369
v 0.153093 -0.101933 -0.034128
v 0.162413 -0.113380 0.025019
v 0.165631 -0.124793 0.115968
v 0.162626 -0.135735 0.065717
v 0.153512 -0.145784 0.047708
v 0.138639 -0.154554 0.031667
v 0.118580 -0.161708 0.018211
v 0.094104 -0.166971 0.007858
v 0.066153 -0.170142 0.001005
v 0.035801 -0.171098 -0.002085
v 0.004214 -0.169802 -0.001293
v -0.027395 -0.166304 0.003352
v -0.057809 -0.160739 0.011669
v -0.085861 -0.153321 0.023340
v -0.110473 -0.144334 0.037917
v 0.013826 0.268146 0.078198
v -0.130698 -0.134124 0.054838
v -0.145760 -0.123083 0.073454
v -0.155079 -0.111636 0.093050
v -0.158298 -0.100222 0.050258
v -0.155292 -0.089281 0.152865
v -0.146178 -0.079232 -0.071802
v -0.131305 -0.070462 -0.095275
v -0.111246 -0.063308 -0.114964
v -0.086770 -0.058044 -0.130114
v 0.073902 -0.078341 0.214349
v -0.035873 -0.029405 0.032042
v -0.025150 0.034797 0.042001
v -0.074825 -0.026039 0.049469
v -0.057892 0.030154 0.054957
v -0.042018 0.032044 0.047467
v -0.056316 -0.028406 0.039599
v 0.062499 0.014413 0.194227
v 0.006841 -0.050112 0.020432
v 0.006741 -0.022557 0.229936
v 0.006074 -0.085050 0.014090
v 0.029345 -0.042049 0.021502
v 0.032947 -0.114059 0.008340
v -0.011398 0.002297 0.033664
v -0.012453 -0.008822 0.030482
v -0.017132 -0.058141 0.021986
v 0.005085 -0.050700 0.020546
v -0.008643 0.031332 0.038528
v 0.027513 -0.005430 0.028195
v 0.008221 0.012786 0.031848
vn -0.2430 0.5801 -0.7774
vn 0.0564 0.9443 0.3243
vn -0.0470 0.5726 -0.8185
vn 0.1419 0.5565 -0.8186
vn 0.3171 0.5351 -0.7830
vn 0.4746 0.5105 -0.7170
vn 0.6126 0.4843 -0.6246
vn 0.7297 0.4571 -0.5085
vn 0.8236 0.4291 -0.3709
vn 0.9003 0.3945 -0.1836
vn 0.9300 0.3663 -0.0294
vn -0.7483 -0.2292 0.6225
vn -0.8604 -0.3290 0.3892
vn -0.6920 -0.2824 0.6643
vn -0.5497 -0.2500 0.7970
vn -0.4090 -0.2232 0.8848
vn -0.2768 -0.2029 0.9392
vn -0.1542 -0.1892 0.9697
vn -0.0125 -0.2319 0.9726
vn -0.0400 -0.1816 0.9825
vn 0.0681 -0.1796 0.9814
vn -0.3738 -0.5391 0.7547
vn 0.1728 -0.1831 0.9678
vn 0.4843 -0.5632 0.6695
vn 0.2764 -0.1922 0.9416
vn -0.1585 -0.1520 0.9756
vn 0.1684 -0.8176 0.5506
vn 0.3810 -0.2074 0.9010
vn 0.2033 -0.3998 0.8938
vn 0.4882 -0.2293 0.8420
vn 0.2724 0.0696 0.9597
vn 0.5984 -0.2590 0.7582
vn 0.7087 -0.2968 0.6400
vn 0.1635 -0.0342 0.9859
vn -0.6194 0.2326 0.7498
vn 0.9057 -0.4230 0.0268
vn -0.8618 0.4744 -0.1793
vn -0.7494 0.5267 -0.4012
vn -0.6085 0.5583 -0.5640
vn -0.4349 0.5761 -0.6920
vn 0.5454 -0.3504 0.7614
vn 0.4141 0.0756 0.9071
vn 0.2971 0.3988 0.8675
vn 0.0009 0.2294 0.9733
vn 0.2353 0.0362 0.9712
vn 0.2603 -0.4572 0.8504
vn 0.2897 0.1726 0.9414
vn 0.6232 0.1375 0.7698
vn 0.1225 0.4021 0.9074
vn -0.1716 0.6550 0.7358
vn 0.1270 -0.2624 0.9565
vn -0.2206 -0.0925 0.9709
vn 0.1760 -0.1788 0.9680
s 1
f 1//1 24//2 2//3
f 2//3 24//2 3//4
f 3//4 24//2 4//5
f 4//5 24//2 5//6
f 5//6 24//2 6//7
f 6//7 24//2 7//8
f 7//8 24//2 8//9
f 8//9 24//2 9//10
f 9//10 24//2 10//11
f 10//11 24//2 11//12
f 11//12 24//2 12//13
f 12//13 24//2 13//14
f 13//14 24//2 14//15
f 14//15 24//2 15//16
f 15//16 24//2 16//17
f 16//17 24//2 17//18
f 46//19 18//20 17//18
f 46//19 19//21 18//20
f 44//22 20//23 19//21
f 35//24 21//25 49//26
f 21//25 40//27 22//28
f 22//28 37//29 23//30
f 37//29 38//31 25//32
f 25//32 24//2 26//33
f 26//33 24//2 27//34
f 27//34 24//2 28//35
f 28//35 24//2 29//36
f 29//36 24//2 30//37
f 30//37 24//2 31//38
f 31//38 24//2 32//39
f 32//39 24//2 33//40
f 33//40 24//2 1//1
f 34//41 35//24 36//42
f 37//29 34//41 38//31
f 36//42 39//43 34//41
f 38//31 34//41 39//43
f 39//43 24//2 38//31
f 39//43 36//42 24//2
f 40//27 35//24 34//41
f 37//29 40//27 34//41
f 44//22 46//19 43//44
f 46//19 42//45 43//44
f 42//45 45//46 41//47
f 41//47 52//48 53//49
f 49//26 43//44 50//50
f 50//50 43//44 42//45
f 48//51 42//45 47//52
f 48//51 49//26 50//50
f 47//52 53//49 51//53
f 53//49 52//48 24//2
f 51//53 53//49 24//2
f 17//18 24//2 52//48
f 52//48 45//46 17//18
f 45//46 46//19 17//18
f 46//19 44//22 19//21
f 44//22 49//26 20//23
f 21//25 20//23 49//26
f 49//26 48//51 35//24
f 48//51 47//52 35//24
f 47//52 51//53 36//42
f 51//53 24//2 36//42
f 47//52 36//42 35//24
f 21//25 35//24 40//27
f 22//28 40//27 37//29
f 25//32 23//30 37//29
f 38//31 24//2 25//32
f 46//19 45//46 42//45
f 41//47 45//46 52//48
f 49//26 44//22 43//44
f 50//50 42//45 48//51
f 42//45 41//47 47//52
f 47//52 41//47 53//49
