# Blender v2.79 (sub 0) OBJ File: 'cabinet.blend'
# www.blender.org
v 2.359789 -1.980188 -1.656363
v 2.359789 1.841608 -1.656363
v 2.359789 -1.980188 -3.964692
v 2.359789 1.841608 -3.964692
v 2.544062 -1.980188 -1.656363
v 2.544062 1.841608 -1.656363
v 2.544062 -1.980188 -3.964692
v 2.544062 1.841608 -3.964692
vt 0.000000 0.666667
vt 0.333333 0.333333
vt 0.333333 0.666667
vt 0.333333 0.000000
vt 0.666667 0.333333
vt 0.666667 0.666667
vt 0.333333 0.333333
vt 0.000000 0.000000
vt 0.333333 0.333333
vt 0.000000 0.333333
vt 0.666667 0.000000
vt 1.000000 0.333333
vt 0.666667 0.333333
vt 0.000000 1.000000
vt 0.333333 0.666667
vt 0.333333 1.000000
vt 0.000000 0.333333
vt 0.666667 0.000000
vt 0.333333 0.000000
vt 1.000000 0.000000
vn -1.0000 0.0000 0.0000
vn 0.0000 0.0000 -1.0000
vn 1.0000 0.0000 0.0000
vn 0.0000 0.0000 1.0000
vn 0.0000 -1.0000 0.0000
vn 0.0000 1.0000 0.0000
s off
f 2/1/1 3/2/1 1/3/1
f 4/4/2 7/5/2 3/2/2
f 8/6/3 5/7/3 7/5/3
f 6/8/4 1/9/4 5/10/4
f 7/11/5 1/12/5 3/13/5
f 4/14/6 6/15/6 8/16/6
f 2/1/1 4/17/1 3/2/1
f 4/4/2 8/18/2 7/5/2
f 8/6/3 6/15/3 5/7/3
f 6/8/4 2/19/4 1/9/4
f 7/11/5 5/20/5 1/12/5
f 4/14/6 2/1/6 6/15/6
v 2.562237 -2.133871 3.701778
v 2.562237 -1.166820 3.701778
v 2.562237 -2.133871 1.561215
v 2.562237 -1.166820 1.561215
v 2.387612 -2.133871 3.701778
v 2.387612 -1.166820 3.701778
v 2.387612 -2.133871 1.561215
v 2.387612 -1.166820 1.561215
vt 0.000000 0.666667
vt 0.333333 0.666667
vt 0.333333 0.333333
vt 0.333333 0.000000
vt 0.666667 0.333333
vt 0.666667 0.666667
vt 0.333333 0.333333
vt 0.000000 0.000000
vt 0.000000 0.333333
vt 0.333333 0.333333
vt 0.666667 0.000000
vt 0.666667 0.333333
vt 1.000000 0.333333
vt 0.000000 1.000000
vt 0.333333 1.000000
vt 0.333333 0.666667
vt 0.000000 0.333333
vt 0.666667 0.000000
vt 0.333333 0.000000
vt 1.000000 0.000000
vn 1.0000 0.0000 0.0000
vn 0.0000 0.0000 -1.0000
vn -1.0000 0.0000 0.0000
vn 0.0000 0.0000 1.0000
vn 0.0000 -1.0000 0.0000
vn 0.0000 1.0000 0.0000
s off
f 10/21/7 9/22/7 11/23/7
f 12/24/8 11/23/8 15/25/8
f 16/26/9 15/25/9 13/27/9
f 14/28/10 13/29/10 9/30/10
f 15/31/11 11/32/11 9/33/11
f 12/34/12 16/35/12 14/36/12
f 10/21/7 11/23/7 12/37/7
f 12/24/8 15/25/8 16/38/8
f 16/26/9 13/27/9 14/36/9
f 14/28/10 9/30/10 10/39/10
f 15/31/11 9/33/11 13/40/11
f 12/34/12 14/36/12 10/21/12
v 2.562237 -2.133871 1.077366
v 2.562237 -1.166820 1.077366
v 2.562237 -2.133871 -1.063197
v 2.562237 -1.166820 -1.063197
v 2.387612 -2.133871 1.077366
v 2.387612 -1.166820 1.077366
v 2.387612 -2.133871 -1.063197
v 2.387612 -1.166820 -1.063197
vt 0.000000 0.666667
vt 0.333333 0.666667
vt 0.333333 0.333333
vt 0.333333 0.000000
vt 0.666667 0.333333
vt 0.666667 0.666667
vt 0.333333 0.333333
vt 0.000000 0.000000
vt 0.000000 0.333333
vt 0.333333 0.333333
vt 0.666667 0.000000
vt 0.666667 0.333333
vt 1.000000 0.333333
vt 0.000000 1.000000
vt 0.333333 1.000000
vt 0.333333 0.666667
vt 0.000000 0.333333
vt 0.666667 0.000000
vt 0.333333 0.000000
vt 1.000000 0.000000
vn 1.0000 0.0000 0.0000
vn 0.0000 0.0000 -1.0000
vn -1.0000 0.0000 0.0000
vn 0.0000 0.0000 1.0000
vn 0.0000 -1.0000 0.0000
vn 0.0000 1.0000 0.0000
s off
f 18/41/13 17/42/13 19/43/13
f 20/44/14 19/43/14 23/45/14
f 24/46/15 23/45/15 21/47/15
f 22/48/16 21/49/16 17/50/16
f 23/51/17 19/52/17 17/53/17
f 20/54/18 24/55/18 22/56/18
f 18/41/13 19/43/13 20/57/13
f 20/44/14 23/45/14 24/58/14
f 24/46/15 21/47/15 22/56/15
f 22/48/16 17/50/16 18/59/16
f 23/51/17 17/53/17 21/60/17
f 20/54/18 22/56/18 18/41/18
